# generated from PmQm by Jehee Lee
:FULLY-SPECIFIED
:DEGREES
184
root 31.0572 39.0307 -60.3458 20.6998 79.9544 18.3526
RightUpLeg -27.0018 -21.5265 4.29006
RightLeg 20.2644 9.58305 2.98318
RightFoot 1.43892 -0.208158 1.96802
RightToes -0.000541893 -0.000659172 -0.000493268
Spine 0.925778 -1.85062 -1.05969
Spine1 1.94585 -3.53305 -1.12865
HEad 5.12222 -30.1602 12.0797
LeftShoulder1 -3.88251e-019 -0 -3.92111e-022
LeftArm -33.4496 2.9571 -72.4186
LeftForeArm 37.5569 1.7656 2.14882
LeftHand -0.873019 -4.3807 10.6379
RightShoulder 7.45443e-017 -2.42657e-020 1.96277e-018
RightArm -28.2121 -8.72883 74.9515
RightForeArm 17.4767 6.69419 4.81946
RightHand -1.64727 11.1819 -11.8836
LeftUpLeg -3.236 1.56955 -4.41084
LeftLeg 14.6584 23.5804 6.17342
LeftFoot -12.6693 0.0121207 -5.49925
LeftToes 3.91355e-005 3.11907e-005 -4.10385e-006
185
root 31.8591 38.9611 -60.3354 17.111 77.6066 14.6272
RightUpLeg -23.9019 -8.04248 -2.57585
RightLeg 7.70117 -14.147 4.34589
RightFoot 6.0614 -0.129756 1.11909
RightToes -0.000541893 -0.000659172 -0.000493268
Spine 0.881188 -1.89673 -0.432464
Spine1 1.78021 -3.75868 -1.06996
HEad 4.87159 -31.0171 11.4361
LeftShoulder1 -3.88251e-019 -0 -3.92111e-022
LeftArm -32.9991 -0.433466 -72.1302
LeftForeArm 37.5307 1.77808 1.95335
LeftHand -0.8469 -4.17629 10.538
RightShoulder 7.45443e-017 -2.42657e-020 1.96277e-018
RightArm -28.6037 -8.46659 74.5594
RightForeArm 18.8052 3.38627 3.08631
RightHand -1.32207 10.2718 -10.1524
LeftUpLeg -2.079 2.52496 -4.76939
LeftLeg 15.1952 25.1066 6.87772
LeftFoot -13.7549 -0.0423648 -5.91707
LeftToes 3.91355e-005 3.11907e-005 -4.10385e-006
186
root 32.7815 38.7653 -60.1467 18.4961 76.101 15.9496
RightUpLeg -24.2394 -3.96783 -4.36428
RightLeg 2.01946 -25.8212 2.59155
RightFoot 8.11698 -0.153775 1.22133
RightToes -0.000541893 -0.000659172 -0.000493268
Spine 0.583221 -2.24364 -0.398049
Spine1 1.15138 -4.49857 -1.5492
HEad 5.13072 -31.7047 10.7277
LeftShoulder1 -3.88251e-019 -0 -3.92111e-022
LeftArm -32.7571 -2.91523 -72.2193
LeftForeArm 36.5278 1.81475 1.8391
LeftHand -0.822108 -4.06014 10.3582
RightShoulder 7.45443e-017 -2.42657e-020 1.96277e-018
RightArm -29.1996 -9.3225 73.8318
RightForeArm 21.0227 0.953668 1.75648
RightHand -1.18855 9.40779 -9.67629
LeftUpLeg -1.53494 4.45159 -5.53746
LeftLeg 17.3464 24.4056 8.05077
LeftFoot -15.1032 -0.139414 -6.98984
LeftToes 3.91355e-005 3.11907e-005 -4.10385e-006
187
root 33.7833 38.6799 -59.799 19.1932 74.6051 16.3869
RightUpLeg -25.0932 -2.57652 -4.01732
RightLeg 0.121363 -29.3201 -1.17393
RightFoot 9.68708 0.0662805 0.0149035
RightToes -0.000541893 -0.000659172 -0.000493268
Spine 0.232615 -2.49593 -0.507742
Spine1 0.437212 -5.01449 -1.96114
HEad 5.34863 -32.3576 10.5211
LeftShoulder1 -3.88251e-019 -0 -3.92111e-022
LeftArm -32.3752 -4.32727 -72.4039
LeftForeArm 35.0924 1.94409 1.22245
LeftHand -0.869612 -4.13271 10.8559
RightShoulder 7.45443e-017 -2.42657e-020 1.96277e-018
RightArm -29.9366 -11.244 73.3208
RightForeArm 21.8245 -0.417699 0.874841
RightHand -1.24465 8.84711 -10.4826
LeftUpLeg -0.778435 6.87279 -5.67896
LeftLeg 18.7482 22.7117 8.43798
LeftFoot -15.6003 -0.2216 -8.46179
LeftToes 3.91355e-005 3.11907e-005 -4.10385e-006
188
root 34.8771 38.7119 -59.3225 18.8296 73.4048 15.7213
RightUpLeg -24.8475 -1.39257 -3.37624
RightLeg -0.668456 -28.3556 -3.03568
RightFoot 12.1438 0.657133 -2.7413
RightToes -0.000541893 -0.000659172 -0.000493268
Spine -0.0942532 -2.70719 -0.485357
Spine1 -0.237101 -5.44809 -2.10178
HEad 5.7456 -33.397 10.3306
LeftShoulder1 -3.88251e-019 -0 -3.92111e-022
LeftArm -31.5543 -4.49903 -72.84
LeftForeArm 33.9073 2.03722 -0.0559443
LeftHand -0.934372 -4.29323 11.4593
RightShoulder 7.45443e-017 -2.42657e-020 1.96277e-018
RightArm -30.809 -14.0334 73.0061
RightForeArm 22.5836 -0.4164 0.183056
RightHand -1.23335 8.52322 -10.6187
LeftUpLeg 0.232076 9.01897 -5.0622
LeftLeg 19.9531 21.1109 8.54278
LeftFoot -14.9804 -0.222224 -9.7572
LeftToes 3.91355e-005 3.11907e-005 -4.10385e-006
189
root 36.085 38.8354 -58.7143 15.9269 72.349 12.8244
RightUpLeg -23.6134 -0.461549 -2.07731
RightLeg 0.133076 -25.7034 -3.34081
RightFoot 14.4768 1.21612 -4.85551
RightToes -0.000541893 -0.000659172 -0.000493268
Spine -0.3195 -2.88533 -0.0799233
Spine1 -0.730164 -5.78776 -1.49892
HEad 6.56489 -34.8083 9.64831
LeftShoulder1 -3.88251e-019 -0 -3.92111e-022
LeftArm -30.997 -3.55617 -73.9204
LeftForeArm 33.2251 0.167231 -1.67314
LeftHand -0.931457 -4.36301 11.3466
RightShoulder 7.45443e-017 -2.42657e-020 1.96277e-018
RightArm -31.6321 -17.0603 72.3811
RightForeArm 23.6997 0.177039 -0.191709
RightHand -1.27436 8.5387 -10.9469
LeftUpLeg 1.62497 10.9371 -3.25995
LeftLeg 21.8808 19.6943 8.7926
LeftFoot -13.2467 -0.11849 -11.7591
LeftToes 3.91355e-005 3.11907e-005 -4.10385e-006
190
root 37.3393 39.0244 -57.969 9.4418 70.2903 6.42026
RightUpLeg -21.724 1.11519 0.419549
RightLeg 1.46645 -23.7043 -3.20658
RightFoot 14.2666 1.41948 -5.80229
RightToes -0.000541893 -0.000659172 -0.000493268
Spine -0.450383 -2.81761 0.880719
Spine1 -1.07274 -5.59046 0.0913158
HEad 7.64258 -35.8839 8.50529
LeftShoulder1 -3.88251e-019 -0 -3.92111e-022
LeftArm -31.2942 -1.90427 -75.794
LeftForeArm 32.6285 -2.42321 -3.10406
LeftHand -0.927405 -4.34705 11.3164
RightShoulder 7.45443e-017 -2.42657e-020 1.96277e-018
RightArm -31.9907 -19.1863 71.2457
RightForeArm 24.5199 0.15365 -0.163079
RightHand -1.40918 8.69474 -11.9298
LeftUpLeg 2.53991 13.9508 0.264514
LeftLeg 25.5119 16.9984 8.9671
LeftFoot -10.4037 0.183841 -14.8145
LeftToes 3.91355e-005 3.11907e-005 -4.10385e-006
191
root 38.5132 39.1742 -57.1726 3.12939 67.1416 -0.11377
RightUpLeg -20.0885 2.84504 3.37699
RightLeg 3.11216 -22.2363 -2.88971
RightFoot 11.0806 1.29511 -6.1377
RightToes -0.000541893 -0.000659172 -0.000493268
Spine -0.552376 -2.67262 2.06379
Spine1 -1.37804 -5.20575 1.89103
HEad 8.92624 -36.2234 7.35208
LeftShoulder1 -3.88251e-019 -0 -3.92111e-022
LeftArm -31.6598 0.257952 -78.2682
LeftForeArm 31.723 -4.04242 -3.89709
LeftHand -0.891512 -4.46621 10.7663
RightShoulder 7.45443e-017 -2.42657e-020 1.96277e-018
RightArm -31.9393 -19.8705 70.1867
RightForeArm 25.6938 -0.0821147 -0.148428
RightHand -1.30367 8.44861 -11.2476
LeftUpLeg 1.12951 16.7167 4.15366
LeftLeg 32.9626 15.1627 10.727
LeftFoot -4.74413 0.879853 -14.9862
LeftToes 3.91355e-005 3.11907e-005 -4.10385e-006
192
root 39.5341 39.233 -56.4402 -0.572159 63.7444 -3.71626
RightUpLeg -18.2432 4.05769 5.85917
RightLeg 4.45455 -20.3486 -2.52152
RightFoot 8.11332 1.14678 -6.35475
RightToes -0.000541893 -0.000659172 -0.000493268
Spine -0.450666 -2.69483 2.93636
Spine1 -1.25755 -5.13992 3.00001
HEad 10.3083 -36.1781 6.66745
LeftShoulder1 -3.88251e-019 -0 -3.92111e-022
LeftArm -31.4419 2.27376 -80.7743
LeftForeArm 31.1422 -4.6105 -3.99651
LeftHand -0.790373 -4.52843 9.52237
RightShoulder 7.45443e-017 -2.42657e-020 1.96277e-018
RightArm -31.7101 -19.5998 69.6967
RightForeArm 26.1539 0.586453 0.105448
RightHand -1.02315 8.07296 -9.16383
LeftUpLeg -2.16813 17.1952 6.5227
LeftLeg 43.2061 14.5933 14.6313
LeftFoot 5.05205 1.1281 -8.46306
LeftToes 3.91355e-005 3.11907e-005 -4.10385e-006
193
root 40.4266 39.18 -55.8155 -2.7695 60.2192 -5.09254
RightUpLeg -16.3903 5.07775 7.98275
RightLeg 6.77021 -17.9795 -3.19965
RightFoot 5.84299 1.01886 -6.46518
RightToes -0.000541893 -0.000659172 -0.000493268
Spine -0.0169243 -2.79487 3.40032
Spine1 -0.421757 -5.22338 3.59241
HEad 11.3251 -35.9985 6.44919
LeftShoulder1 -3.88251e-019 -0 -3.92111e-022
LeftArm -31.3656 2.82118 -82.6224
LeftForeArm 32.3063 -2.94073 -3.68484
LeftHand -0.800079 -3.94749 10.214
RightShoulder 7.45443e-017 -2.42657e-020 1.96277e-018
RightArm -31.0422 -18.7587 69.6001
RightForeArm 24.0477 2.0423 1.27927
RightHand -1.02184 8.43331 -8.92196
LeftUpLeg -5.31727 15.6709 7.49873
LeftLeg 51.6461 10.7644 14.5833
LeftFoot 12.5816 -0.0196467 -0.249818
LeftToes 3.91355e-005 3.11907e-005 -4.10385e-006
194
root 41.2708 39.1058 -55.2961 -4.00844 55.9568 -5.69189
RightUpLeg -14.9368 5.97785 9.87952
RightLeg 9.31876 -14.9423 -4.00455
RightFoot 3.17013 0.836174 -6.38671
RightToes -0.000541893 -0.000659172 -0.000493268
Spine 0.43065 -2.74111 3.84003
Spine1 0.455289 -5.01088 4.00461
HEad 12.0787 -35.3635 6.22208
LeftShoulder1 -3.88251e-019 -0 -3.92111e-022
LeftArm -32.0901 1.7415 -83.8316
LeftForeArm 36.15 0.794083 -2.93738
LeftHand -0.827365 -3.25114 11.3468
RightShoulder 7.45443e-017 -2.42657e-020 1.96277e-018
RightArm -29.762 -17.2093 69.7982
RightForeArm 21.9466 3.72935 3.01454
RightHand -1.20238 9.18248 -9.91913
LeftUpLeg -8.16853 13.7082 7.80098
LeftLeg 56.3929 5.11791 8.69258
LeftFoot 10.4633 -0.461987 2.12974
LeftToes 3.91355e-005 3.11907e-005 -4.10385e-006
195
root 42.117 39.1244 -54.8674 -3.93875 51.1106 -5.55013
RightUpLeg -13.5106 6.27805 10.9522
RightLeg 10.4066 -10.7967 -3.5961
RightFoot 1.00098 0.673656 -6.15628
RightToes -0.000541893 -0.000659172 -0.000493268
Spine 0.547144 -2.55982 4.11543
Spine1 0.708532 -4.63772 4.02146
HEad 13.4982 -34.182 5.65022
LeftShoulder1 -3.88251e-019 -0 -3.92111e-022
LeftArm -33.04 0.530191 -85.0009
LeftForeArm 41.0325 2.18553 -1.38536
LeftHand -0.744708 -3.305 10.1803
RightShoulder 7.45443e-017 -2.42657e-020 1.96277e-018
RightArm -28.3206 -15.3034 70.4432
RightForeArm 22.8908 5.76753 4.84566
RightHand -1.16641 9.45465 -9.4728
LeftUpLeg -11.3067 11.5502 7.43802
LeftLeg 57.5246 2.4808 4.73516
LeftFoot 3.52633 0.0297369 -0.391863
LeftToes 3.91355e-005 3.11907e-005 -4.10385e-006
